<svg width="19" height="18" viewBox="0 0 19 18" fill="none" xmlns="http://www.w3.org/2000/svg">
<g id="Text Format">
<path id="Union" fill-rule="evenodd" clip-rule="evenodd" d="M3.5001 2.25C3.91431 2.25 4.2501 2.58579 4.2501 3C4.2501 3.41421 3.91431 3.75 3.5001 3.75C3.08588 3.75 2.7501 3.41421 2.7501 3C2.7501 2.58579 3.08588 2.25 3.5001 2.25ZM9.50006 3.74985H5.62212C5.39618 4.38924 4.88944 4.89601 4.25006 5.12198V8.99985V12.8779C4.88936 13.1039 5.39606 13.6106 5.62204 14.2498H9.50006H13.3782C13.6041 13.6106 14.1108 13.1039 14.7501 12.878V8.99985V5.12194C14.1107 4.89595 13.604 4.38921 13.3781 3.74985H9.50006ZM13.3782 2.24985H9.50006H5.62201C5.3131 1.37604 4.47971 0.75 3.5001 0.75C2.25746 0.75 1.2501 1.75736 1.2501 3C1.2501 3.97965 1.87619 4.81307 2.75006 5.12195V8.99985V12.878C1.87619 13.1868 1.2501 14.0203 1.2501 14.9999C1.2501 16.2426 2.25746 17.2499 3.5001 17.2499C4.47979 17.2499 5.31324 16.6238 5.62209 15.7498H9.50006H13.3781C13.687 16.6238 14.5204 17.2499 15.5001 17.2499C16.7428 17.2499 17.7501 16.2426 17.7501 14.9999C17.7501 14.0202 17.124 13.1868 16.2501 12.8779V8.99985V5.12199C17.124 4.81314 17.7501 3.97969 17.7501 3C17.7501 1.75736 16.7428 0.75 15.5001 0.75C14.5205 0.75 13.6871 1.37604 13.3782 2.24985ZM4.2501 14.9999C4.2501 14.5857 3.91431 14.2499 3.5001 14.2499C3.08588 14.2499 2.7501 14.5857 2.7501 14.9999C2.7501 15.4141 3.08588 15.7499 3.5001 15.7499C3.91431 15.7499 4.2501 15.4141 4.2501 14.9999ZM15.5001 14.2499C15.9143 14.2499 16.2501 14.5857 16.2501 14.9999C16.2501 15.4141 15.9143 15.7499 15.5001 15.7499C15.0859 15.7499 14.7501 15.4141 14.7501 14.9999C14.7501 14.5857 15.0859 14.2499 15.5001 14.2499ZM16.2501 3C16.2501 2.58579 15.9143 2.25 15.5001 2.25C15.0859 2.25 14.7501 2.58579 14.7501 3C14.7501 3.41421 15.0859 3.75 15.5001 3.75C15.9143 3.75 16.2501 3.41421 16.2501 3Z" fill="#F03E3E"/>
</g>
</svg>
