<svg width="19" height="18" viewBox="0 0 19 18" fill="none" xmlns="http://www.w3.org/2000/svg">
<g id="Home">
<path id="Union" fill-rule="evenodd" clip-rule="evenodd" d="M9.82447 3.047C9.61359 2.97848 9.38643 2.97848 9.17554 3.047C9.10171 3.07099 8.99634 3.12483 8.80223 3.28962C8.60143 3.46008 8.35904 3.70165 7.99387 4.06682L6.04564 6.01505C5.55343 6.50726 5.39717 6.67034 5.28736 6.84952C5.18045 7.02399 5.10166 7.2142 5.05389 7.41317C5.00483 7.61752 5.00001 7.84333 5.00001 8.53942V11.43C5.00001 12.1985 5.00059 12.7297 5.03431 13.1423C5.0673 13.5461 5.12826 13.7699 5.21255 13.9353C5.3995 14.3022 5.69781 14.6005 6.06473 14.7875C6.23016 14.8718 6.45388 14.9327 6.85773 14.9657C7.27033 14.9994 7.80156 15 8.57001 15H10.43C11.1985 15 11.7297 14.9994 12.1423 14.9657C12.5461 14.9327 12.7699 14.8718 12.9353 14.7875C13.3022 14.6005 13.6005 14.3022 13.7875 13.9353C13.8718 13.7699 13.9327 13.5461 13.9657 13.1423C13.9994 12.7297 14 12.1985 14 11.43V8.53942C14 7.84333 13.9952 7.61752 13.9461 7.41317C13.8984 7.2142 13.8196 7.02399 13.7127 6.84952C13.6028 6.67034 13.4466 6.50726 12.9544 6.01505L11.0061 4.06682C10.641 3.70165 10.3986 3.46008 10.1978 3.28962C10.0037 3.12483 9.8983 3.07099 9.82447 3.047ZM8.71201 1.62041C9.22416 1.454 9.77585 1.454 10.288 1.62041C10.6252 1.72996 10.9035 1.92109 11.1685 2.14611C11.4217 2.36097 11.7073 2.6466 12.0457 2.985L12.0668 3.00616L13.7714 4.71073C13.7744 4.71364 13.7774 4.71657 13.7803 4.71954L17.5303 8.46954C17.8232 8.76243 17.8232 9.23731 17.5303 9.5302C17.2374 9.82309 16.7626 9.82309 16.4697 9.5302L15.5 8.56053V11.43L15.5 11.4617C15.5 12.1909 15.5 12.7835 15.4607 13.2644C15.4202 13.7611 15.334 14.2041 15.124 14.6163C14.7932 15.2654 14.2654 15.7932 13.6163 16.124C13.2041 16.334 12.761 16.4202 12.2644 16.4607C11.7835 16.5 11.1909 16.5 10.4617 16.5H10.43H8.57001H8.53832C7.80916 16.5 7.21649 16.5 6.73558 16.4607C6.23897 16.4202 5.79587 16.334 5.38374 16.124C4.73458 15.7932 4.2068 15.2654 3.87604 14.6163C3.66605 14.2041 3.57986 13.7611 3.53929 13.2644C3.5 12.7835 3.5 12.1909 3.50001 11.4618V11.43V8.56053L2.53034 9.5302C2.23745 9.82309 1.76258 9.82309 1.46968 9.5302C1.17679 9.23731 1.17679 8.76243 1.46968 8.46954L5.21968 4.71954C5.22266 4.71656 5.22567 4.7136 5.22869 4.71068L6.93321 3.00616L6.95435 2.98501C7.29275 2.6466 7.57836 2.36098 7.83147 2.14611C8.09652 1.92109 8.37485 1.72996 8.71201 1.62041Z" fill="#F03E3E"/>
<path id="Union_2" fill-rule="evenodd" clip-rule="evenodd" d="M10.288 1.62017C9.77585 1.45376 9.22416 1.45376 8.71201 1.62017C8.37485 1.72972 8.09652 1.92085 7.83146 2.14586C7.57835 2.36074 7.29273 2.64637 6.95433 2.98479L6.93321 3.00591L5.21968 4.71944L1.46968 8.46944C1.17679 8.76233 1.17679 9.23721 1.46968 9.5301C1.76258 9.823 2.23745 9.823 2.53034 9.5301L6.28034 5.78011L7.99387 4.06657C8.35904 3.70141 8.60143 3.45984 8.80223 3.28937C8.99634 3.12459 9.10171 3.07074 9.17554 3.04675C9.38642 2.97823 9.61359 2.97823 9.82447 3.04675C9.8983 3.07074 10.0037 3.12459 10.1978 3.28937C10.3986 3.45984 10.641 3.70141 11.0061 4.06657L12.7197 5.78011L16.4697 9.5301C16.7626 9.823 17.2374 9.823 17.5303 9.5301C17.8232 9.23721 17.8232 8.76233 17.5303 8.46944L13.7803 4.71944L12.0668 3.00591L12.0456 2.98475C11.7073 2.64635 11.4216 2.36073 11.1685 2.14586C10.9035 1.92085 10.6252 1.72972 10.288 1.62017Z" fill="#F03E3E"/>
</g>
</svg>
