<svg width="22" height="22" viewBox="0 0 22 22" fill="none" xmlns="http://www.w3.org/2000/svg">
<g id="Group">
<path id="Vector" d="M10.9365 5.06885C7.97358 5.06885 5.51855 7.48155 5.51855 10.4868C5.51855 13.4921 7.93125 15.9048 10.9365 15.9048C13.9418 15.9048 16.3545 13.4498 16.3545 10.4868C16.3545 7.52387 13.8995 5.06885 10.9365 5.06885ZM10.9365 13.9577C9.03178 13.9577 7.46564 12.3916 7.46564 10.4868C7.46564 8.58207 9.03178 7.01594 10.9365 7.01594C12.8413 7.01594 14.4074 8.58207 14.4074 10.4868C14.4074 12.3916 12.8413 13.9577 10.9365 13.9577Z" fill="#F03E3E"/>
<path id="Vector_2" d="M16.5661 6.16938C17.2441 6.16938 17.7936 5.61981 17.7936 4.94187C17.7936 4.26393 17.2441 3.71436 16.5661 3.71436C15.8882 3.71436 15.3386 4.26393 15.3386 4.94187C15.3386 5.61981 15.8882 6.16938 16.5661 6.16938Z" fill="#F03E3E"/>
<path id="Vector_3" d="M19.7408 1.76719C18.6403 0.624331 17.0741 0.0317383 15.2964 0.0317383H6.57678C2.89424 0.0317383 0.439209 2.48676 0.439209 6.1693V14.8466C0.439209 16.6667 1.0318 18.2328 2.21699 19.3757C3.35984 20.4762 4.88365 21.0264 6.6191 21.0264H15.254C17.0741 21.0264 18.5979 20.4339 19.6985 19.3757C20.8413 18.2751 21.4339 16.709 21.4339 14.8889V6.1693C21.4339 4.39153 20.8413 2.86772 19.7408 1.76719ZM19.5715 14.8889C19.5715 16.2011 19.1059 17.2593 18.344 17.9788C17.5821 18.6984 16.5239 19.0794 15.254 19.0794H6.6191C5.34926 19.0794 4.29106 18.6984 3.52916 17.9788C2.76725 17.2169 2.3863 16.1587 2.3863 14.8466V6.1693C2.3863 4.89946 2.76725 3.84126 3.52916 3.07936C4.24873 2.35978 5.34926 1.97883 6.6191 1.97883H15.3387C16.6085 1.97883 17.6667 2.35978 18.4286 3.12169C19.1482 3.88359 19.5715 4.94179 19.5715 6.1693V14.8889Z" fill="#F03E3E"/>
</g>
</svg>
