<svg width="25" height="24" viewBox="0 0 25 24" fill="none" xmlns="http://www.w3.org/2000/svg">
<g id="Import - 2">
<path id="Union" fill-rule="evenodd" clip-rule="evenodd" d="M13 3.00006C13 2.58585 12.6642 2.25006 12.25 2.25006C11.8358 2.25006 11.5 2.58585 11.5 3.00006V15.1894L8.78033 12.4697C8.48744 12.1768 8.01256 12.1768 7.71967 12.4697C7.42678 12.7626 7.42678 13.2375 7.71967 13.5304L11.7197 17.5304C11.8603 17.671 12.0511 17.7501 12.25 17.7501C12.4489 17.7501 12.6397 17.671 12.7803 17.5304L16.7803 13.5304C17.0732 13.2375 17.0732 12.7626 16.7803 12.4697C16.4874 12.1768 16.0126 12.1768 15.7197 12.4697L13 15.1894V3.00006ZM7.75 8.24998L7.04998 8.24999H7.01788C6.20504 8.24998 5.54943 8.24998 5.01852 8.29336C4.47189 8.33802 3.99175 8.43238 3.54753 8.65872C2.84192 9.01825 2.26825 9.59192 1.90872 10.2975C1.68239 10.7417 1.58803 11.2219 1.54336 11.7685C1.49999 12.2994 1.49999 12.955 1.5 13.7679V13.7679V13.8V16.2V16.2321V16.2321C1.49999 17.0449 1.49999 17.7006 1.54336 18.2315C1.58803 18.7781 1.68239 19.2582 1.90873 19.7025C2.26825 20.4081 2.84193 20.9817 3.54754 21.3413C3.99175 21.5676 4.4719 21.662 5.01853 21.7066C5.54944 21.75 6.20505 21.75 7.01788 21.75H7.05L17.45 21.75H17.4821C18.2949 21.75 18.9506 21.75 19.4815 21.7066C20.0281 21.662 20.5082 21.5676 20.9525 21.3413C21.6581 20.9818 22.2317 20.4081 22.5913 19.7025C22.8176 19.2582 22.912 18.7781 22.9566 18.2315C23 17.7006 23 17.045 23 16.2321V16.2V13.8V13.7679C23 12.955 23 12.2994 22.9566 11.7685C22.912 11.2219 22.8176 10.7417 22.5913 10.2975C22.2318 9.59192 21.6581 9.01825 20.9525 8.65872C20.5083 8.43238 20.0281 8.33802 19.4815 8.29336C18.9506 8.24998 18.295 8.24998 17.4821 8.24999H17.4821H17.45L16.75 8.24998H16.75L16.25 8.25C15.8358 8.25001 15.5 8.58581 15.5 9.00002C15.5 9.41424 15.8358 9.75001 16.25 9.75L16.75 9.74998H16.75L17.45 9.74999C18.3025 9.74999 18.8967 9.75057 19.3593 9.78837C19.8132 9.82546 20.074 9.89459 20.2715 9.99523C20.6948 10.2109 21.0391 10.5552 21.2548 10.9785C21.3554 11.176 21.4245 11.4368 21.4616 11.8907C21.4994 12.3533 21.5 12.9475 21.5 13.8V16.2C21.5 17.0525 21.4994 17.6467 21.4616 18.1093C21.4245 18.5632 21.3554 18.824 21.2548 19.0215C21.039 19.4448 20.6948 19.789 20.2715 20.0048C20.074 20.1054 19.8132 20.1745 19.3593 20.2116C18.8967 20.2494 18.3025 20.25 17.45 20.25L7.05 20.25C6.19755 20.25 5.60331 20.2494 5.14068 20.2116C4.6868 20.1745 4.42604 20.1054 4.22852 20.0048C3.80516 19.789 3.46095 19.4448 3.24524 19.0215C3.1446 18.824 3.07547 18.5632 3.03838 18.1093C3.00058 17.6467 3 17.0525 3 16.2V13.8C3 12.9475 3.00058 12.3533 3.03838 11.8907C3.07547 11.4368 3.1446 11.176 3.24524 10.9785C3.46095 10.5552 3.80515 10.2109 4.22852 9.99523C4.42603 9.89459 4.6868 9.82546 5.14067 9.78837C5.6033 9.75057 6.19754 9.74999 7.04999 9.74999L7.74998 9.74998H7.75L8.24998 9.75C8.66419 9.75001 8.99999 9.41424 9 9.00002C9.00001 8.58581 8.66424 8.25001 8.25002 8.25L7.75002 8.24998H7.75Z" fill="#8FA4B3"/>
</g>
</svg>
