<svg width="25" height="24" viewBox="0 0 25 24" fill="none" xmlns="http://www.w3.org/2000/svg">
<g id="Phone">
<path id="Union" fill-rule="evenodd" clip-rule="evenodd" d="M6.21166 2.24996C6.23319 2.24997 6.25497 2.24998 6.27703 2.24998C6.29737 2.24998 6.31743 2.24998 6.33723 2.24997C6.66937 2.24982 6.9277 2.24971 7.1664 2.29183C8.06582 2.45055 8.82775 3.04545 9.19987 3.87952C9.29863 4.10087 9.36118 4.35152 9.44159 4.67378C9.44638 4.69299 9.45124 4.71246 9.45617 4.73219L9.99136 6.87294C10.0004 6.90893 10.0093 6.94446 10.0181 6.97955C10.1687 7.58009 10.2871 8.05165 10.2445 8.51885C10.2071 8.92934 10.0779 9.32617 9.86646 9.67999C9.62581 10.0827 9.25256 10.3942 8.77721 10.791C8.74943 10.8141 8.72131 10.8376 8.69285 10.8614L6.69606 12.5308C7.99937 14.8902 9.85985 16.7507 12.2192 18.054L13.8886 16.0572C13.9124 16.0287 13.9359 16.0006 13.9591 15.9728C14.3558 15.4975 14.6673 15.1242 15.07 14.8836C15.4239 14.6721 15.8207 14.5429 16.2312 14.5055C16.6984 14.463 17.1699 14.5813 17.7705 14.7319C17.8056 14.7407 17.8411 14.7497 17.8771 14.7587L20.0178 15.2939C20.0376 15.2988 20.057 15.3036 20.0762 15.3084C20.3985 15.3889 20.6492 15.4514 20.8705 15.5502C21.7046 15.9223 22.2995 16.6842 22.4582 17.5836C22.5003 17.8223 22.5002 18.0807 22.5001 18.4128C22.5001 18.4326 22.5 18.4527 22.5 18.473C22.5 18.4951 22.5001 18.5168 22.5001 18.5384C22.5003 18.9214 22.5004 19.2236 22.4339 19.5215C22.1918 20.6054 21.1884 21.5156 20.0861 21.6514C19.7837 21.6886 19.5238 21.6631 19.2006 21.6314C19.1851 21.6299 19.1695 21.6284 19.1538 21.6268C16.5141 21.3693 14.1385 20.7099 12.0692 19.6701C8.99504 18.1255 6.6245 15.755 5.07988 12.6808C4.04017 10.6116 3.38072 8.2359 3.12318 5.59623C3.12164 5.58049 3.12012 5.5649 3.1186 5.54945C3.08691 5.22622 3.06144 4.96636 3.09867 4.66395C3.23439 3.56158 4.1446 2.55825 5.22857 2.31612C5.52642 2.24959 5.82864 2.24976 6.21166 2.24996ZM13.6077 18.7318C15.2881 19.452 17.1899 19.9281 19.2994 20.1339C19.6859 20.1716 19.7817 20.1775 19.9028 20.1626C20.3756 20.1044 20.8661 19.6593 20.97 19.1945C20.9959 19.0784 21 18.9514 21 18.473C21 18.0524 20.9973 17.9363 20.981 17.8443C20.9089 17.4355 20.6385 17.0891 20.2593 16.92C20.174 16.8819 20.0621 16.8511 19.654 16.7491L17.5133 16.2139C16.7542 16.0241 16.548 15.9829 16.3673 15.9994C16.1807 16.0164 16.0003 16.0751 15.8395 16.1712C15.6837 16.2643 15.5413 16.419 15.0394 17.0193L13.6077 18.7318ZM6.01822 11.1423L7.73074 9.7106C8.33103 9.20875 8.48574 9.06635 8.57884 8.91055C8.67495 8.74972 8.73367 8.56934 8.75067 8.38276C8.76714 8.202 8.72592 7.99582 8.53615 7.23675L8.00096 5.09599C7.89894 4.68791 7.86808 4.57598 7.83003 4.49068C7.66088 4.11156 7.31455 3.84115 6.90572 3.76901C6.81374 3.75277 6.69766 3.74998 6.27703 3.74998C5.7986 3.74998 5.67166 3.75412 5.55557 3.78005C5.09068 3.88389 4.64564 4.37446 4.58743 4.84724C4.57252 4.96837 4.57838 5.0641 4.61609 5.45058C4.82191 7.56011 5.29807 9.46188 6.01822 11.1423Z" fill="white"/>
</g>
</svg>
